<svg width="29" height="33" viewBox="0 0 29 33" fill="none" xmlns="http://www.w3.org/2000/svg">
<g clip-path="url(#clip0_88_330)">
<path fill-rule="evenodd" clip-rule="evenodd" d="M3.38525 17.3647C3.38525 15.08 4.29288 12.8888 5.90845 11.2732C7.52403 9.65762 9.71523 8.75 12 8.75C14.2848 8.75 16.476 9.65762 18.0915 11.2732C19.7071 12.8888 20.6147 15.08 20.6147 17.3647V21.997L22.857 26.4816C22.9603 26.688 23.009 26.9174 22.9986 27.1479C22.9883 27.3785 22.9191 27.6025 22.7978 27.7989C22.6765 27.9952 22.5069 28.1572 22.3054 28.2696C22.1038 28.3819 21.8768 28.4409 21.6461 28.4408H16.7676C16.4939 29.4971 15.8772 30.4325 15.0143 31.1003C14.1513 31.768 13.0911 32.1304 12 32.1304C10.9089 32.1304 9.84866 31.768 8.98575 31.1003C8.12284 30.4325 7.5061 29.4971 7.23235 28.4408H2.35395C2.12317 28.4409 1.89621 28.3819 1.69463 28.2696C1.49305 28.1572 1.32355 27.9952 1.20221 27.7989C1.08087 27.6025 1.01174 27.3785 1.00137 27.1479C0.990997 26.9174 1.03974 26.688 1.14296 26.4816L3.38525 21.997V17.3647ZM9.86847 28.4408C10.0845 28.815 10.3952 29.1257 10.7694 29.3417C11.1435 29.5577 11.568 29.6714 12 29.6714C12.432 29.6714 12.8565 29.5577 13.2306 29.3417C13.6048 29.1257 13.9155 28.815 14.1315 28.4408H9.86847ZM12 11.2114C10.368 11.2114 8.80288 11.8597 7.6489 13.0136C6.49491 14.1676 5.84661 15.7328 5.84661 17.3647V21.997C5.84658 22.3789 5.75768 22.7556 5.58694 23.0972L4.14704 25.9795H19.8542L18.4143 23.0972C18.2431 22.7557 18.1538 22.379 18.1534 21.997V17.3647C18.1534 15.7328 17.5051 14.1676 16.3511 13.0136C15.1971 11.8597 13.632 11.2114 12 11.2114Z" fill="#9CA3AF"/>
</g>
<rect x="10" y="0.75" width="18" height="18" rx="9" fill="#DC2626"/>
<rect x="10" y="0.75" width="18" height="18" rx="9" stroke="white" stroke-width="1.5"/>
<path d="M13.964 12.75C13.964 12.2647 14.028 11.8433 14.156 11.486C14.2893 11.1287 14.5027 10.8087 14.796 10.526C15.0947 10.2433 15.4893 9.974 15.98 9.718C16.2413 9.58467 16.4467 9.46733 16.596 9.366C16.7507 9.25933 16.86 9.15267 16.924 9.046C16.988 8.93933 17.02 8.814 17.02 8.67C17.02 8.53133 16.988 8.41133 16.924 8.31C16.8653 8.20333 16.7773 8.12067 16.66 8.062C16.5427 7.998 16.396 7.966 16.22 7.966C15.932 7.966 15.7027 8.05133 15.532 8.222C15.3667 8.38733 15.2627 8.63 15.22 8.95L13.972 8.878C14.0253 8.27533 14.244 7.80333 14.628 7.462C15.0173 7.11533 15.5427 6.942 16.204 6.942C16.6413 6.942 17.012 7.014 17.316 7.158C17.6253 7.302 17.86 7.502 18.02 7.758C18.1853 8.014 18.268 8.31267 18.268 8.654C18.268 8.95267 18.2173 9.20333 18.116 9.406C18.02 9.60867 17.8627 9.79533 17.644 9.966C17.4253 10.1367 17.1373 10.318 16.78 10.51C16.3213 10.7553 15.9827 10.982 15.764 11.19C15.5453 11.3927 15.428 11.5713 15.412 11.726H18.268V12.75H13.964ZM21.5629 12.75V11.67H18.7389V10.702L21.3309 7.07H22.7789V10.646H23.4429V11.67H22.7789V12.75H21.5629ZM20.0269 10.646H21.5629V8.566L20.0269 10.646Z" fill="white"/>
<defs>
<clipPath id="clip0_88_330">
<rect width="24" height="24" fill="white" transform="translate(0 8.3125)"/>
</clipPath>
</defs>
</svg>
