<svg width="14" height="13" viewBox="0 0 14 13" fill="none" xmlns="http://www.w3.org/2000/svg">
<path fill-rule="evenodd" clip-rule="evenodd" d="M2.61545 1.26741C2.77202 1.20322 2.89745 1.08059 2.96515 0.92551C3.03286 0.770428 3.03752 0.595079 2.97815 0.436618C2.91879 0.278158 2.80006 0.149037 2.64712 0.0766175C2.49418 0.00419782 2.31906 -0.00583042 2.15885 0.0486579L1.26736 0.382859C0.895188 0.522419 0.574453 0.772209 0.347995 1.09887C0.121536 1.42553 0.000132763 1.8135 7.57974e-08 2.21098V4.34727C-0.000195807 5.36943 0.379281 6.35522 1.06481 7.11341C1.75034 7.8716 2.69306 8.34814 3.71007 8.45057C3.81626 9.50291 4.32279 10.4742 5.12492 11.1636C5.92705 11.853 6.96344 12.2078 8.01979 12.1547C9.07614 12.1015 10.0717 11.6444 10.8005 10.8779C11.5294 10.1114 11.9358 9.09419 11.9358 8.03651V7.72053C12.4306 7.56498 12.8534 7.23739 13.1276 6.79708C13.4018 6.35676 13.5093 5.83282 13.4306 5.32011C13.3519 4.8074 13.0923 4.3398 12.6986 4.00198C12.305 3.66416 11.8034 3.47844 11.2847 3.47844C10.766 3.47844 10.2644 3.66416 9.87081 4.00198C9.47719 4.3398 9.21753 4.8074 9.13884 5.32011C9.06015 5.83282 9.16764 6.35676 9.44184 6.79708C9.71605 7.23739 10.1388 7.56498 10.6337 7.72053V8.03651C10.6346 8.75598 10.3606 9.44862 9.86766 9.97274C9.37476 10.4969 8.70024 10.8129 7.98207 10.8561C7.26389 10.8993 6.55633 10.6666 6.0041 10.2054C5.45188 9.74418 5.09672 9.08943 5.01128 8.37505C5.92873 8.17271 6.74958 7.66313 7.33792 6.93066C7.92626 6.19819 8.24682 5.28677 8.24653 4.34727V2.21185C8.24657 1.81422 8.12525 1.42606 7.89878 1.09922C7.67231 0.772393 7.35148 0.522471 6.97917 0.382859L6.08767 0.0486579C6.00702 0.0155904 5.92054 -0.00094192 5.83337 4.14262e-05C5.7462 0.00102477 5.66012 0.0195038 5.58023 0.0543824C5.50034 0.089261 5.42826 0.139829 5.36828 0.203087C5.3083 0.266344 5.26164 0.341004 5.23105 0.422636C5.20047 0.504269 5.18659 0.591212 5.19024 0.678309C5.19389 0.765405 5.215 0.850882 5.25231 0.929669C5.28962 1.00846 5.34237 1.07895 5.40743 1.13696C5.47249 1.19498 5.54855 1.23934 5.63108 1.26741L6.5217 1.60161C6.64581 1.64808 6.75279 1.73133 6.82833 1.84022C6.90387 1.94911 6.94438 2.07846 6.94444 2.21098V4.34727C6.94444 5.09549 6.64721 5.81307 6.11814 6.34214C5.58907 6.87122 4.87149 7.16845 4.12326 7.16845C3.37504 7.16845 2.65746 6.87122 2.12839 6.34214C1.59931 5.81307 1.30208 5.09549 1.30208 4.34727V2.21185C1.30197 2.07918 1.3424 1.94963 1.41795 1.84057C1.49351 1.73151 1.60058 1.64813 1.72483 1.60161L2.61545 1.26741ZM11.2847 6.51741C11.5149 6.51741 11.7357 6.42595 11.8985 6.26316C12.0613 6.10037 12.1528 5.87958 12.1528 5.64935C12.1528 5.41913 12.0613 5.19834 11.8985 5.03554C11.7357 4.87275 11.5149 4.7813 11.2847 4.7813C11.0545 4.7813 10.8337 4.87275 10.6709 5.03554C10.5081 5.19834 10.4167 5.41913 10.4167 5.64935C10.4167 5.87958 10.5081 6.10037 10.6709 6.26316C10.8337 6.42595 11.0545 6.51741 11.2847 6.51741Z" fill="white"/>
</svg>
