<svg width="182" height="289" viewBox="0 0 182 289" fill="none" xmlns="http://www.w3.org/2000/svg">
<g opacity="0.2" clip-path="url(#clip0_71_1726)">
<path d="M195.653 55.7458C194.778 61.6017 192.35 66.9214 188.89 71.6056C183.27 79.2139 175.145 85.4212 166.44 91.2209C149.029 102.82 129.208 113.132 121.536 125.398C114.336 136.912 112.922 147.379 115.037 156.087C115.946 159.833 117.533 163.28 119.664 166.352C145.721 157.155 170.747 134.988 179.368 109.494C176.186 136.753 158.892 162.087 131.136 176.432L127.837 174.541C128.777 175.202 129.749 175.818 130.748 176.387C146.47 185.37 170.56 183.866 189.861 161.357C198.729 151.016 207.943 132.266 210.064 111.381C211.898 93.3131 208.61 73.7163 195.652 55.746L195.653 55.7458ZM208.428 191.015C204.402 193.761 199.851 195.408 195.103 196.123C186.803 197.371 177.87 196.18 168.852 194.375C150.816 190.763 132.138 184.921 119.986 187.723C108.474 190.379 101.24 195.917 97.219 202.518C95.4969 205.342 94.319 208.463 93.7461 211.72C115.565 221.997 144.592 223.677 165.62 213.271C146.821 228.14 120.552 233.148 94.5575 224.995C98.8797 239.911 114.445 253.469 139.918 251.512C151.72 250.604 169.005 244.717 183.197 233.138C195.245 223.309 205.141 209.549 208.428 191.016L208.428 191.015ZM79.5 75.2584C62.6657 83.6854 52.2817 97.0939 46.2879 111.441C39.2284 128.341 38.5085 146.591 40.9991 158.161C46.3737 183.132 63.8009 194.179 79.3304 194.077C64.1165 171.484 61.4389 144.88 70.3434 122.631C66.3542 145.751 76.2253 173.095 92.2914 191.082C95.2521 189.609 97.9102 187.594 100.128 185.14C105.311 179.406 108.556 170.88 107.824 159.09C107.051 146.646 96.1334 130.413 87.5361 114.154C83.2369 106.025 79.5487 97.8073 78.3837 89.4962C77.7167 84.7386 78.0123 79.9034 79.5002 75.2592L79.5 75.2584Z" fill="#FB3179"/>
</g>
<defs>
<clipPath id="clip0_71_1726">
<rect width="205.746" height="205.746" fill="white" transform="translate(161.53) rotate(51.7293)"/>
</clipPath>
</defs>
</svg>
