<svg width="197" height="287" viewBox="0 0 197 287" fill="none" xmlns="http://www.w3.org/2000/svg">
<g opacity="0.2" clip-path="url(#clip0_71_1728)">
<path d="M-27.2873 75.1296C-21.5061 77.1001 -16.5565 80.5487 -12.4426 84.9262C-5.76075 92.0372 -0.964074 101.431 3.31178 111.338C11.8624 131.154 18.6614 153.176 29.6911 163.231C40.044 172.668 50.4059 176.039 59.6343 175.504C63.6043 175.274 67.3958 174.301 70.9076 172.707C66.3937 144.561 48.526 115.063 24.2473 101.597C51.3236 109.869 73.8346 132.106 83.2596 162.929L80.7299 165.927C81.5749 165.095 82.3796 164.223 83.1415 163.314C95.1662 149.02 98.0956 124.293 78.8228 100.542C69.9677 89.6291 52.6436 76.8104 31.8403 70.7946C13.8432 65.5912 -6.65311 65.3039 -27.2873 75.1306L-27.2873 75.1296ZM112.355 87.1841C114.398 91.7785 115.227 96.7013 115.074 101.653C114.806 110.307 111.946 119.152 108.445 127.971C101.443 145.607 92.0601 163.481 92.6563 176.333C93.222 188.507 97.5048 196.872 103.46 202.174C106.007 204.444 108.957 206.217 112.156 207.401C126.622 187.159 133.695 158.01 127.024 134.746C138.638 156.574 138.861 184.16 125.779 209.033C141.715 207.405 158.354 194.117 161.079 167.903C162.342 155.758 159.564 137.127 150.438 120.582C142.691 106.537 130.557 93.9485 112.356 87.185L112.355 87.1841ZM-28.969 196.618C-23.5304 215.261 -11.8433 228.28 1.60858 237.016C17.4537 247.307 35.8421 251.413 48.0446 251.025C74.381 250.19 88.8159 234.547 91.5844 218.767C65.8413 230.029 38.3473 227.825 17.4143 214.673C40.1395 222.998 69.7165 218.038 90.9424 205.06C89.995 201.783 88.4413 198.712 86.3618 196.008C81.501 189.687 73.4482 184.816 61.3479 183.379C48.5753 181.862 30.0825 189.939 11.9908 195.657C2.94583 198.516 -6.07588 200.739 -14.726 200.384C-19.6777 200.181 -24.5301 198.987 -28.9681 196.618L-28.969 196.618Z" fill="#FB3179"/>
</g>
<defs>
<clipPath id="clip0_71_1728">
<rect width="212.244" height="212.244" fill="white" transform="translate(-90.1763 99.4515) rotate(-27.9416)"/>
</clipPath>
</defs>
</svg>
