<svg width="13" height="13" viewBox="0 0 13 13" fill="none" xmlns="http://www.w3.org/2000/svg">
<path d="M2.67634 8.46408C1.39625 7.95308 0.650879 6.6892 0.650879 5.38248C0.650879 3.68688 1.99174 2.01153 2.93271 1.0451C3.4437 0.519635 4.22322 0.519635 4.73479 1.0451C5.01951 1.33734 5.26025 1.6944 5.56986 2.09776" stroke="white" stroke-width="1.30208" stroke-linecap="round"/>
<path d="M4.12305 8.13189C4.12305 6.07402 5.82964 4.04045 7.02756 2.86568C7.67802 2.22853 8.66992 2.22853 9.32039 2.86568C10.5183 4.04045 12.2249 6.07402 12.2249 8.13189C12.2249 10.1498 10.6913 12.2256 8.17397 12.2256C5.65661 12.2256 4.12305 10.1498 4.12305 8.13189Z" stroke="white" stroke-width="1.30208"/>
<path d="M10.1995 8.46399C10.1995 9.74292 9.33143 10.2001 8.46338 10.2001" stroke="white" stroke-width="1.30208" stroke-linecap="round" stroke-linejoin="round"/>
</svg>
