<svg width="14" height="13" viewBox="0 0 14 13" fill="none" xmlns="http://www.w3.org/2000/svg">
<path fill-rule="evenodd" clip-rule="evenodd" d="M6.94358 3.85289e-07C7.08161 -0.000149746 7.21613 0.0435789 7.32769 0.124871C7.43925 0.206163 7.52209 0.320811 7.56424 0.452257L10.4167 9.36632L11.533 5.87847C11.5749 5.74701 11.6576 5.63227 11.769 5.55082C11.8804 5.46938 12.0148 5.42544 12.1528 5.42535H13.2378C13.4105 5.42535 13.5761 5.49394 13.6982 5.61603C13.8203 5.73813 13.8889 5.90372 13.8889 6.07639C13.8889 6.24906 13.8203 6.41465 13.6982 6.53674C13.5761 6.65884 13.4105 6.72743 13.2378 6.72743H12.6276L11.0365 11.7005C10.9943 11.8317 10.9115 11.9462 10.8001 12.0274C10.6888 12.1085 10.5545 12.1523 10.4167 12.1523C10.2788 12.1523 10.1446 12.1085 10.0332 12.0274C9.92181 11.9462 9.83906 11.8317 9.79688 11.7005L6.94878 2.80035L4.96094 9.09375C4.91993 9.22343 4.83933 9.33701 4.73046 9.41855C4.6216 9.50008 4.48993 9.54547 4.35395 9.54834C4.21796 9.55122 4.0845 9.51143 3.97228 9.43457C3.86007 9.3577 3.77475 9.24763 3.7283 9.11979L2.63108 6.10243L2.57031 6.28299C2.52715 6.41257 2.44433 6.5253 2.33357 6.60522C2.2228 6.68514 2.08971 6.7282 1.95312 6.7283H0.651042C0.478375 6.7283 0.31278 6.65971 0.190686 6.53761C0.0685917 6.41552 0 6.24992 0 6.07726C0 5.90459 0.0685917 5.739 0.190686 5.6169C0.31278 5.49481 0.478375 5.42622 0.651042 5.42622H1.48438L1.98611 3.9184C2.02865 3.78998 2.11013 3.67799 2.21924 3.59801C2.32836 3.51802 2.45968 3.47402 2.59495 3.47211C2.73023 3.4702 2.86274 3.51048 2.97406 3.58735C3.08539 3.66422 3.17 3.77387 3.21615 3.90104L4.29688 6.87413L6.32378 0.455729C6.36528 0.323777 6.44773 0.20847 6.55917 0.126528C6.67061 0.0445866 6.80525 0.000268705 6.94358 3.85289e-07Z" fill="white"/>
</svg>
