<svg width="62" height="62" viewBox="0 0 62 62" fill="none" xmlns="http://www.w3.org/2000/svg">
<path fill-rule="evenodd" clip-rule="evenodd" d="M31.2498 14.0877C31.2498 13.6772 31.0867 13.2834 30.7965 12.9932C30.5062 12.7029 30.1125 12.5398 29.7019 12.5398C29.2914 12.5398 28.8977 12.7029 28.6074 12.9932C28.3171 13.2834 28.154 13.6772 28.154 14.0877V16.2733C28.154 16.6838 28.3171 17.0775 28.6074 17.3678C28.8977 17.6581 29.2914 17.8212 29.7019 17.8212C30.1125 17.8212 30.5062 17.6581 30.7965 17.3678C31.0867 17.0775 31.2498 16.6838 31.2498 16.2733V14.0877ZM43.6717 26.4708C43.6717 26.8813 43.5086 27.2751 43.2183 27.5653C42.928 27.8556 42.5343 28.0187 42.1238 28.0187H39.9327C39.5222 28.0187 39.1285 27.8556 38.8382 27.5653C38.5479 27.2751 38.3848 26.8813 38.3848 26.4708C38.3848 26.0603 38.5479 25.6666 38.8382 25.3763C39.1285 25.086 39.5222 24.9229 39.9327 24.9229H42.1238C42.5343 24.9229 42.928 25.086 43.2183 25.3763C43.5086 25.6666 43.6717 26.0603 43.6717 26.4708ZM14.757 26.4708C14.757 26.8813 14.9201 27.2751 15.2104 27.5653C15.5007 27.8556 15.8944 28.0187 16.3049 28.0187H18.4968C18.9073 28.0187 19.301 27.8556 19.5913 27.5653C19.8816 27.2751 20.0446 26.8813 20.0446 26.4708C20.0446 26.0603 19.8816 25.6666 19.5913 25.3763C19.301 25.086 18.9073 24.9229 18.4968 24.9229H16.3049C15.8944 24.9229 15.5007 25.086 15.2104 25.3763C14.9201 25.6666 14.757 26.0603 14.757 26.4708ZM39.5821 16.6224C39.7264 16.7655 39.8409 16.9358 39.919 17.1235C39.9972 17.3111 40.0374 17.5123 40.0374 17.7156C40.0374 17.9188 39.9972 18.12 39.919 18.3077C39.8409 18.4953 39.7264 18.6656 39.5821 18.8088L38.0327 20.3535C37.4275 20.9572 36.4461 20.9572 35.8401 20.3535C35.6962 20.2102 35.5821 20.0399 35.5042 19.8524C35.4263 19.6649 35.3862 19.4638 35.3862 19.2607C35.3862 19.0577 35.4263 18.8566 35.5042 18.6691C35.5821 18.4815 35.6962 18.3112 35.8401 18.1679L37.3903 16.6224C37.6814 16.3326 38.0755 16.1698 38.4862 16.1698C38.897 16.1698 39.291 16.3326 39.5821 16.6224ZM19.3868 18.4698C19.2429 18.3265 19.1288 18.1562 19.0509 17.9686C18.973 17.7811 18.9329 17.58 18.9329 17.377C18.9329 17.1739 18.973 16.9728 19.0509 16.7853C19.1288 16.5978 19.2429 16.4275 19.3868 16.2841C19.6779 15.9941 20.0721 15.8312 20.4831 15.8312C20.894 15.8312 21.2882 15.9941 21.5794 16.2841L23.1296 17.8289C23.2735 17.9722 23.3876 18.1426 23.4655 18.3301C23.5434 18.5176 23.5835 18.7187 23.5835 18.9218C23.5835 19.1248 23.5434 19.3259 23.4655 19.5134C23.3876 19.7009 23.2735 19.8713 23.1296 20.0146C22.5236 20.6182 21.543 20.6182 20.937 20.0146L19.3868 18.4698ZM30.9542 26.5397C36.3989 31.5835 41.4721 36.748 43.571 38.912C43.7908 39.138 43.8203 39.4151 43.7305 39.6202C43.5447 40.0427 43.3381 40.473 43.1384 40.8174C42.9387 41.1619 42.6686 41.555 42.3946 41.9273C42.26 42.1092 41.9992 42.2245 41.6888 42.1471C38.7633 41.418 31.7521 39.6232 24.6566 37.4477C25.1519 36.2666 26.0365 34.3921 27.5542 31.7708C29.0193 29.2408 30.1756 27.5683 30.9542 26.5389M26.9467 19.236C27.2008 18.9577 27.5478 18.7818 27.9224 18.7411C28.2971 18.7004 28.6737 18.7978 28.9816 19.0149C29.2896 19.2321 29.5078 19.5542 29.5952 19.9207C29.6826 20.2873 29.6334 20.6732 29.4566 21.006C36.2186 26.9832 43.2344 34.1174 45.7938 36.7558C46.8255 37.8207 47.197 39.4274 46.5647 40.8662C46.3572 41.3368 46.0988 41.8832 45.8178 42.3692C45.5361 42.8537 45.1909 43.3506 44.8852 43.7646C43.9534 45.0285 42.3776 45.5091 40.9404 45.1508C40.3994 45.0161 39.7176 44.8451 38.9204 44.6407L38.8035 45.078C38.0606 47.8426 35.2132 49.4763 32.4494 48.7388C29.6841 47.9997 28.0356 45.1616 28.7794 42.3955L28.9032 41.9319C25.73 41.0241 22.3247 39.9978 19.0819 38.9197C18.8816 39.2391 18.5718 39.4745 18.2104 39.5816C17.849 39.6888 17.4609 39.6604 17.119 39.5017C16.777 39.3431 16.5047 39.0652 16.3531 38.7201C16.2016 38.3749 16.1811 37.9864 16.2957 37.6272L17.0665 37.8718L16.2964 37.6265V37.6257L16.298 37.6234L16.2987 37.6187L16.3034 37.6063L16.3158 37.5692L16.3576 37.4485C16.3937 37.3468 16.4489 37.2003 16.5232 37.0089C16.6733 36.6265 16.9102 36.06 17.2639 35.2922C17.972 33.7567 19.1531 31.4117 21.0647 28.11C22.9764 24.8084 24.4236 22.6173 25.4034 21.2382C25.7629 20.7286 26.1366 20.2292 26.5241 19.7406C26.6487 19.5848 26.7764 19.4315 26.9072 19.2809L26.9328 19.2522L26.942 19.2422L26.9451 19.2383L26.9467 19.236ZM31.8845 42.7701C33.3302 43.1695 34.6916 43.5363 35.9245 43.8614L35.8138 44.2747C35.6683 44.8098 35.3165 45.2654 34.8355 45.5415C34.3545 45.8177 33.7837 45.8917 33.2482 45.7475C32.9836 45.6774 32.7354 45.5559 32.5178 45.3899C32.3003 45.2239 32.1176 45.0166 31.9802 44.7798C31.8428 44.5431 31.7535 44.2817 31.7173 44.0104C31.6811 43.7391 31.6987 43.4633 31.7691 43.1989L31.8845 42.7701Z" fill="url(#paint0_linear_83_3113)"/>
<defs>
<linearGradient id="paint0_linear_83_3113" x1="30.8161" y1="12.5398" x2="30.8161" y2="48.9158" gradientUnits="userSpaceOnUse">
<stop stop-color="#ECA321"/>
<stop offset="1" stop-color="#B32070"/>
</linearGradient>
</defs>
</svg>
