<svg width="712" height="30" viewBox="0 0 712 30" fill="none" xmlns="http://www.w3.org/2000/svg">
<path d="M12.8801 10.017L17.6541 11.288M11.8581 13.813L14.2441 14.449M11.9771 20.966L12.9311 21.221C15.6311 21.941 16.9811 22.3 18.0451 21.689C19.1081 21.079 19.4701 19.736 20.1931 17.052L21.2161 13.255C21.9401 10.57 22.3011 9.22799 21.6871 8.16999C21.0731 7.11199 19.7241 6.75298 17.0231 6.03398L16.0691 5.77898C13.3691 5.05898 12.0191 4.69998 10.9561 5.31098C9.89211 5.92099 9.53011 7.26398 8.80611 9.94798L7.78411 13.745C7.06011 16.43 6.69811 17.772 7.31311 18.83C7.92711 19.887 9.27711 20.247 11.9771 20.966Z" stroke="#9CA3AF" stroke-width="1.5" stroke-linecap="round"/>
<path d="M12 23.946L11.048 24.206C8.35403 24.939 7.00803 25.306 5.94603 24.683C4.88603 24.061 4.52403 22.692 3.80303 19.955L2.78203 16.083C2.06003 13.346 1.69903 11.977 2.31203 10.899C2.84203 9.96603 4.00003 10 5.50003 10" stroke="#9CA3AF" stroke-width="1.5" stroke-linecap="round"/>
<path d="M30.28 20.5V9.14H32.712L37.608 17.684V9.14H39.688V20.5H37.192L32.36 12.196V20.5H30.28ZM45.0045 20.692C44.1618 20.692 43.4205 20.5107 42.7805 20.148C42.1512 19.7747 41.6605 19.252 41.3085 18.58C40.9672 17.908 40.7965 17.124 40.7965 16.228C40.7965 15.3213 40.9672 14.5373 41.3085 13.876C41.6605 13.204 42.1512 12.6867 42.7805 12.324C43.4205 11.9507 44.1618 11.764 45.0045 11.764C45.8472 11.764 46.5832 11.9507 47.2125 12.324C47.8418 12.6867 48.3272 13.204 48.6685 13.876C49.0205 14.5373 49.1965 15.3213 49.1965 16.228C49.1965 17.124 49.0205 17.908 48.6685 18.58C48.3272 19.252 47.8418 19.7747 47.2125 20.148C46.5832 20.5107 45.8472 20.692 45.0045 20.692ZM45.0045 19.028C45.6658 19.028 46.1725 18.7827 46.5245 18.292C46.8872 17.8013 47.0685 17.1133 47.0685 16.228C47.0685 15.3533 46.8872 14.6707 46.5245 14.18C46.1725 13.6787 45.6658 13.428 45.0045 13.428C44.3432 13.428 43.8312 13.6787 43.4685 14.18C43.1058 14.6707 42.9245 15.3533 42.9245 16.228C42.9245 17.1133 43.1058 17.8013 43.4685 18.292C43.8312 18.7827 44.3432 19.028 45.0045 19.028ZM53.264 20.5C52.4107 20.5 51.7813 20.3027 51.376 19.908C50.9813 19.5133 50.784 18.8947 50.784 18.052V9.956H52.832V17.86C52.832 18.2547 52.9173 18.532 53.088 18.692C53.2587 18.8413 53.5253 18.916 53.888 18.916H55.088V20.5H53.264ZM49.44 13.54V11.956H55.088V13.54H49.44ZM59.5054 20.692C58.652 20.692 57.9107 20.5107 57.2814 20.148C56.652 19.7747 56.1667 19.252 55.8254 18.58C55.484 17.908 55.3134 17.124 55.3134 16.228C55.3134 15.332 55.484 14.5533 55.8254 13.892C56.1667 13.22 56.6467 12.6973 57.2654 12.324C57.8947 11.9507 58.6254 11.764 59.4574 11.764C60.268 11.764 60.9774 11.9453 61.5854 12.308C62.204 12.6707 62.6787 13.1933 63.0094 13.876C63.34 14.5587 63.5054 15.38 63.5054 16.34V16.804H57.4414C57.484 17.5507 57.6867 18.116 58.0494 18.5C58.4227 18.8733 58.9134 19.06 59.5214 19.06C59.98 19.06 60.3587 18.9587 60.6574 18.756C60.9667 18.5427 61.18 18.2493 61.2974 17.876L63.3934 18.004C63.1587 18.836 62.6947 19.492 62.0014 19.972C61.3187 20.452 60.4867 20.692 59.5054 20.692ZM57.4414 15.428H61.3934C61.3507 14.7347 61.1534 14.2227 60.8014 13.892C60.4494 13.5507 60.0014 13.38 59.4574 13.38C58.9134 13.38 58.46 13.556 58.0974 13.908C57.7454 14.26 57.5267 14.7667 57.4414 15.428ZM67.9382 20.692C67.0956 20.692 66.3862 20.5693 65.8102 20.324C65.2449 20.0787 64.8076 19.7373 64.4982 19.3C64.1889 18.8627 64.0129 18.3667 63.9702 17.812L66.0662 17.716C66.1409 18.164 66.3276 18.5107 66.6262 18.756C66.9249 19.0013 67.3676 19.124 67.9542 19.124C68.4342 19.124 68.8076 19.0493 69.0742 18.9C69.3516 18.74 69.4902 18.4947 69.4902 18.164C69.4902 17.972 69.4422 17.812 69.3462 17.684C69.2502 17.556 69.0689 17.444 68.8022 17.348C68.5356 17.252 68.1409 17.156 67.6182 17.06C66.7436 16.9107 66.0556 16.7293 65.5542 16.516C65.0529 16.292 64.6956 16.0147 64.4822 15.684C64.2796 15.3533 64.1782 14.9427 64.1782 14.452C64.1782 13.652 64.4822 13.0067 65.0902 12.516C65.7089 12.0147 66.6102 11.764 67.7942 11.764C68.5622 11.764 69.2076 11.892 69.7302 12.148C70.2529 12.3933 70.6582 12.7347 70.9462 13.172C71.2449 13.5987 71.4316 14.0893 71.5062 14.644L69.4422 14.74C69.3889 14.452 69.2929 14.2013 69.1542 13.988C69.0156 13.7747 68.8289 13.6147 68.5942 13.508C68.3596 13.3907 68.0822 13.332 67.7622 13.332C67.2822 13.332 66.9196 13.428 66.6742 13.62C66.4289 13.812 66.3062 14.068 66.3062 14.388C66.3062 14.612 66.3596 14.7987 66.4662 14.948C66.5836 15.0973 66.7702 15.22 67.0262 15.316C67.2822 15.4013 67.6236 15.4813 68.0502 15.556C68.9462 15.6947 69.6502 15.876 70.1622 16.1C70.6849 16.3133 71.0529 16.5907 71.2662 16.932C71.4902 17.2627 71.6022 17.6627 71.6022 18.132C71.6022 18.676 71.4476 19.14 71.1382 19.524C70.8396 19.908 70.4129 20.2013 69.8582 20.404C69.3142 20.596 68.6742 20.692 67.9382 20.692Z" fill="#0F172A"/>
<rect x="683" width="29" height="30" rx="14.5" fill="#F3F4F6"/>
<path d="M683 15C683 10.0294 687.029 6 692 6H703C707.971 6 712 10.0294 712 15C712 19.9706 707.971 24 703 24H692C687.029 24 683 19.9706 683 15Z" fill="#F3F4F6"/>
<g opacity="0.5">
<path d="M688 14.5C688 13.1193 689.119 12 690.5 12C691.881 12 693 13.1193 693 14.5C693 15.8807 691.881 17 690.5 17C689.119 17 688 15.8807 688 14.5Z" fill="#0F172A"/>
</g>
<path d="M695 12.5C695 11.1193 696.119 10 697.5 10C698.881 10 700 11.1193 700 12.5C700 13.8807 698.881 15 697.5 15C696.119 15 695 13.8807 695 12.5Z" fill="#0F172A"/>
<g opacity="0.5">
<path d="M702 14.5C702 13.1193 703.119 12 704.5 12C705.881 12 707 13.1193 707 14.5C707 15.8807 705.881 17 704.5 17C703.119 17 702 15.8807 702 14.5Z" fill="#0F172A"/>
</g>
</svg>
